<svg xmlns="http://www.w3.org/2000/svg" viewBox="0 0 512 512">
  <rect width="512" height="512" rx="112" fill="#1d4ed8"/>
  <rect x="104" y="88" width="304" height="336" rx="28" fill="#ffffff"/>
  <rect x="142" y="144" width="228" height="18" rx="9" fill="#93c5fd"/>
  <rect x="142" y="186" width="188" height="18" rx="9" fill="#bfdbfe"/>
  <rect x="142" y="228" width="228" height="18" rx="9" fill="#93c5fd"/>
  <rect x="142" y="270" width="168" height="18" rx="9" fill="#bfdbfe"/>
  <path d="M286 334h74l-28 28 12 12 48-48-48-48-12 12 28 28h-74z" fill="#2563eb"/>
  <path d="M226 318h-74l28-28-12-12-48 48 48 48 12-12-28-28h74z" fill="#2563eb"/>
</svg>
